# Blender 3.6.2
# www.blender.org
mtllib robot_full.mtl
o Cube.002
v 0.000000 0.000000 -1.000000
v 0.000000 -0.000000 1.000000
v -0.125000 -0.125000 -0.000000
v -0.125000 0.125000 0.000000
v 0.125000 0.125000 0.000000
v 0.125000 -0.125000 -0.000000
vn -0.9923 -0.0000 0.1240
vn -0.0000 0.9923 0.1240
vn 0.9923 -0.0000 0.1240
vn -0.0000 -0.9923 0.1240
vn -0.0000 -0.9923 -0.1240
vn 0.9923 -0.0000 -0.1240
vn -0.0000 0.9923 -0.1240
vn -0.9923 -0.0000 -0.1240
vt 0.500000 0.000000
vt 0.625000 0.250000
vt 0.500000 0.250000
vt 0.625000 0.500000
vt 0.500000 0.500000
vt 0.625000 0.750000
vt 0.500000 0.750000
vt 0.625000 1.000000
vt 0.500000 1.000000
vt 0.375000 0.750000
vt 0.375000 0.500000
vt 0.375000 0.250000
vt 0.375000 0.000000
s 0
usemtl Pen
f 3/1/1 2/2/1 4/3/1
f 4/3/2 2/4/2 5/5/2
f 5/5/3 2/6/3 6/7/3
f 6/7/4 2/8/4 3/9/4
f 1/10/5 6/7/5 3/9/5
f 1/11/6 5/5/6 6/7/6
f 1/12/7 4/3/7 5/5/7
f 1/13/8 3/1/8 4/3/8
